<mxfile host="Electron" modified="2023-11-30T10:42:33.978Z" agent="Mozilla/5.0 (Windows NT 10.0; Win64; x64) AppleWebKit/537.36 (KHTML, like Gecko) draw.io/22.1.2 Chrome/114.0.5735.289 Electron/25.9.4 Safari/537.36" etag="7FT7A3w7nivnORpnjz8Z" version="22.1.2" type="device">
  <diagram id="C5RBs43oDa-KdzZeNtuy" name="Page-1">
    <mxGraphModel dx="917" dy="700" grid="1" gridSize="10" guides="1" tooltips="1" connect="1" arrows="1" fold="1" page="1" pageScale="1" pageWidth="827" pageHeight="1169" math="0" shadow="0">
      <root>
        <mxCell id="WIyWlLk6GJQsqaUBKTNV-0" />
        <mxCell id="WIyWlLk6GJQsqaUBKTNV-1" parent="WIyWlLk6GJQsqaUBKTNV-0" />
        <mxCell id="znngSfEvoibUfOx_9c5Z-21" style="edgeStyle=orthogonalEdgeStyle;rounded=0;orthogonalLoop=1;jettySize=auto;html=1;" edge="1" parent="WIyWlLk6GJQsqaUBKTNV-1" source="znngSfEvoibUfOx_9c5Z-4" target="znngSfEvoibUfOx_9c5Z-9">
          <mxGeometry relative="1" as="geometry">
            <Array as="points">
              <mxPoint x="390" y="346" />
              <mxPoint x="390" y="415" />
            </Array>
          </mxGeometry>
        </mxCell>
        <mxCell id="znngSfEvoibUfOx_9c5Z-4" value="Product" style="swimlane;fontStyle=0;childLayout=stackLayout;horizontal=1;startSize=26;fillColor=none;horizontalStack=0;resizeParent=1;resizeParentMax=0;resizeLast=0;collapsible=1;marginBottom=0;whiteSpace=wrap;html=1;" vertex="1" parent="WIyWlLk6GJQsqaUBKTNV-1">
          <mxGeometry x="150" y="320" width="200" height="52" as="geometry" />
        </mxCell>
        <mxCell id="znngSfEvoibUfOx_9c5Z-7" value="+ accept(ModelVisitor): void" style="text;strokeColor=none;fillColor=none;align=left;verticalAlign=top;spacingLeft=4;spacingRight=4;overflow=hidden;rotatable=0;points=[[0,0.5],[1,0.5]];portConstraint=eastwest;whiteSpace=wrap;html=1;" vertex="1" parent="znngSfEvoibUfOx_9c5Z-4">
          <mxGeometry y="26" width="200" height="26" as="geometry" />
        </mxCell>
        <mxCell id="znngSfEvoibUfOx_9c5Z-9" value="&amp;lt;&amp;lt;interface&amp;gt;&amp;gt;&lt;br&gt;ModelVisitor" style="swimlane;fontStyle=0;childLayout=stackLayout;horizontal=1;startSize=30;fillColor=none;horizontalStack=0;resizeParent=1;resizeParentMax=0;resizeLast=0;collapsible=1;marginBottom=0;whiteSpace=wrap;html=1;" vertex="1" parent="WIyWlLk6GJQsqaUBKTNV-1">
          <mxGeometry x="420" y="374" width="140" height="82" as="geometry" />
        </mxCell>
        <mxCell id="znngSfEvoibUfOx_9c5Z-10" value="+ visit(Product): void" style="text;strokeColor=none;fillColor=none;align=left;verticalAlign=top;spacingLeft=4;spacingRight=4;overflow=hidden;rotatable=0;points=[[0,0.5],[1,0.5]];portConstraint=eastwest;whiteSpace=wrap;html=1;" vertex="1" parent="znngSfEvoibUfOx_9c5Z-9">
          <mxGeometry y="30" width="140" height="26" as="geometry" />
        </mxCell>
        <mxCell id="znngSfEvoibUfOx_9c5Z-12" value="+ visit(Stock): void" style="text;strokeColor=none;fillColor=none;align=left;verticalAlign=top;spacingLeft=4;spacingRight=4;overflow=hidden;rotatable=0;points=[[0,0.5],[1,0.5]];portConstraint=eastwest;whiteSpace=wrap;html=1;" vertex="1" parent="znngSfEvoibUfOx_9c5Z-9">
          <mxGeometry y="56" width="140" height="26" as="geometry" />
        </mxCell>
        <mxCell id="znngSfEvoibUfOx_9c5Z-22" style="edgeStyle=orthogonalEdgeStyle;rounded=0;orthogonalLoop=1;jettySize=auto;html=1;" edge="1" parent="WIyWlLk6GJQsqaUBKTNV-1" source="znngSfEvoibUfOx_9c5Z-13" target="znngSfEvoibUfOx_9c5Z-9">
          <mxGeometry relative="1" as="geometry" />
        </mxCell>
        <mxCell id="znngSfEvoibUfOx_9c5Z-13" value="Stock" style="swimlane;fontStyle=0;childLayout=stackLayout;horizontal=1;startSize=26;fillColor=none;horizontalStack=0;resizeParent=1;resizeParentMax=0;resizeLast=0;collapsible=1;marginBottom=0;whiteSpace=wrap;html=1;" vertex="1" parent="WIyWlLk6GJQsqaUBKTNV-1">
          <mxGeometry x="150" y="414" width="210" height="78" as="geometry" />
        </mxCell>
        <mxCell id="znngSfEvoibUfOx_9c5Z-14" value="+ accept(ModelVisitor): void" style="text;strokeColor=none;fillColor=none;align=left;verticalAlign=top;spacingLeft=4;spacingRight=4;overflow=hidden;rotatable=0;points=[[0,0.5],[1,0.5]];portConstraint=eastwest;whiteSpace=wrap;html=1;" vertex="1" parent="znngSfEvoibUfOx_9c5Z-13">
          <mxGeometry y="26" width="210" height="26" as="geometry" />
        </mxCell>
        <mxCell id="znngSfEvoibUfOx_9c5Z-15" value="&amp;nbsp; &amp;nbsp;getId(): String" style="text;strokeColor=none;fillColor=none;align=left;verticalAlign=top;spacingLeft=4;spacingRight=4;overflow=hidden;rotatable=0;points=[[0,0.5],[1,0.5]];portConstraint=eastwest;whiteSpace=wrap;html=1;" vertex="1" parent="znngSfEvoibUfOx_9c5Z-13">
          <mxGeometry y="52" width="210" height="26" as="geometry" />
        </mxCell>
        <mxCell id="znngSfEvoibUfOx_9c5Z-19" style="edgeStyle=orthogonalEdgeStyle;rounded=0;orthogonalLoop=1;jettySize=auto;html=1;endArrow=block;endFill=0;dashed=1;" edge="1" parent="WIyWlLk6GJQsqaUBKTNV-1" source="znngSfEvoibUfOx_9c5Z-16" target="znngSfEvoibUfOx_9c5Z-9">
          <mxGeometry relative="1" as="geometry" />
        </mxCell>
        <mxCell id="znngSfEvoibUfOx_9c5Z-16" value="DbDeleteVisitor" style="html=1;whiteSpace=wrap;" vertex="1" parent="WIyWlLk6GJQsqaUBKTNV-1">
          <mxGeometry x="620" y="324" width="110" height="50" as="geometry" />
        </mxCell>
        <mxCell id="znngSfEvoibUfOx_9c5Z-20" style="edgeStyle=orthogonalEdgeStyle;rounded=0;orthogonalLoop=1;jettySize=auto;html=1;endArrow=block;endFill=0;dashed=1;" edge="1" parent="WIyWlLk6GJQsqaUBKTNV-1" source="znngSfEvoibUfOx_9c5Z-17" target="znngSfEvoibUfOx_9c5Z-9">
          <mxGeometry relative="1" as="geometry" />
        </mxCell>
        <mxCell id="znngSfEvoibUfOx_9c5Z-17" value="DbInsertVisitor" style="html=1;whiteSpace=wrap;" vertex="1" parent="WIyWlLk6GJQsqaUBKTNV-1">
          <mxGeometry x="620" y="456" width="110" height="50" as="geometry" />
        </mxCell>
      </root>
    </mxGraphModel>
  </diagram>
</mxfile>
